<svg viewBox="0 0 500 500" xmlns="http://www.w3.org/2000/svg"><path d="M469.5 359.5h-54.7v-27.4h27.3v-79.9l-23.5-70.7h-99.7v150.6h13.7v27.4h-41V154.1h146.7l31.2 93.6z"/><path d="M373.7 400.5c-30.2 0-54.8-24.6-54.8-54.8s24.6-54.8 54.8-54.8c30.2 0 54.8 24.6 54.8 54.8s-24.6 54.8-54.8 54.8zm0-82.1c-15.1 0-27.4 12.3-27.4 27.4 0 15.1 12.3 27.4 27.4 27.4 15.1 0 27.4-12.3 27.4-27.4 0-15.1-12.3-27.4-27.4-27.4zM318.9 359.5H182.1v-27.4h109.5V126.8H58.9v205.3h41v27.4H31.5V99.4h287.4z"/><path d="M141 400.5c-30.2 0-54.8-24.6-54.8-54.8S110.8 291 141 291s54.8 24.6 54.8 54.8-24.6 54.7-54.8 54.7zm0-82.1c-15.1 0-27.4 12.3-27.4 27.4 0 15.1 12.3 27.4 27.4 27.4s27.4-12.3 27.4-27.4c0-15.1-12.3-27.4-27.4-27.4zM168.4 269.3l-64.5-64.4 19.4-19.4 45.1 45.1 72.4-72.4 19.4 19.3z"/></svg>