<svg version="1" xmlns="http://www.w3.org/2000/svg" width="824" height="1113.333" viewBox="0 0 618.000000 835.000000"><g fill="#FFF"><path d="M180.3 1.4c-9.9 3.1-7.3.5-86.5 89.6-30.5 34.4-62.7 70.6-71.6 80.5-9.8 11-17.2 20.2-18.9 23.5l-2.8 5.5v612l2.8 5.7c3.2 6.4 8 11.1 14.6 14.2l4.6 2.1h334l4.6-2.1c6.6-3.1 11.4-7.8 14.6-14.2 2.4-4.8 2.8-7 2.8-13.7 0-6.7-.4-8.9-2.8-13.7-3.2-6.4-8-11.1-14.6-14.2l-4.6-2.1-147.7-.3L61 774V259.1l67.8-.3c66.7-.3 67.8-.3 72.3-2.4 6.7-3.1 12.4-8.7 15.6-15.2l2.8-5.7.3-87.8.2-87.7h337l.2 187.2.3 187.3 2.8 5.7c5.3 10.9 14.3 16.3 27.2 16.3 6.7 0 8.9-.4 13.7-2.8 6.4-3.2 11.1-8 14.2-14.6l2.1-4.6v-412l-2.8-5.7c-3.2-6.4-8-11.1-14.6-14.2L595.5.5 390 .3C222.9.2 183.7.4 180.3 1.4zm-21.6 196.3c-.2.2-17.5.2-38.4.1l-38.1-.3 16.7-18.6c9.1-10.2 26.3-29.5 38.1-42.9l21.5-24.3.3 42.8c.1 23.5.1 43-.1 43.2zM576 537.7c-6.3 2.3-15.2 11.4-17.3 17.7-4 11.7-1.4 23.1 7.2 31.7 7.2 7.1 13.2 9.4 23.5 8.7 11.7-.8 19.5-5.9 24.5-16 2.7-5.2 3.1-7.2 3.1-13.8 0-12.4-5.5-21.6-16.4-27.2-5.5-2.9-18.2-3.4-24.6-1.1zM576 656.7c-7 2.5-15.4 11.5-17.5 18.8-3.4 11.4-.6 23 7.3 30.9 5.9 6 10.5 7.9 20.2 8.4 8.1.4 8.8.2 15-3 7.1-3.7 12.9-10.2 14.9-16.8.6-2 1.1-6.9 1.1-10.7 0-16.8-13.1-29.4-30.3-29.2-3.4 0-8.2.8-10.7 1.6zM457.6 775.6c-6.6 2.1-15.6 11-17.9 17.8-2.5 7.3-2.2 17 .7 23.1 3.4 7.3 6.9 11 13.8 14.4 5.2 2.7 7.2 3.1 13.8 3.1 16.9 0 28.7-10.9 29.8-27.6.7-10.3-1.6-16.3-8.8-23.6-4.3-4.3-6.9-6-11-7.2-6.6-2-13.9-1.9-20.4 0zM579 774.9c-13.1 4.3-20.9 14.2-21.8 27.6-1.1 17.7 11.7 31.5 29.4 31.5 9.9 0 15.8-2.3 22-8.4 6.1-6.2 8.4-12.1 8.4-22 0-11.9-6.1-21.6-16.8-26.7-4.8-2.4-16.7-3.5-21.2-2z"/></g></svg>