<svg version="1" xmlns="http://www.w3.org/2000/svg" width="1156" height="1116" viewBox="0 0 867.000000 837.000000"><g fill="#FFF"><path d="M19 1.7c-2.8 1-6.6 3.7-10.1 7.2C-1 18.9 0-18.6 0 341.5s-1 322.6 8.9 332.6c9.3 9.3 6.1 8.9 75.8 8.9H145v64.8c0 74.8-.4 70.9 8.9 80.3 3.8 3.8 7.2 6.1 10.5 7.2 6.7 2.3 18.2 2.2 24.5-.2 5.3-2 13.7-7.2 90-56.6 34.3-22.2 53.7-34.7 62.1-40.1 4.1-2.6 16.3-10.5 27-17.5 10.7-6.9 28.3-18.3 39-25.2l19.5-12.7h208.1c236.6 0 213.6.9 223.5-8.9 9.8-9.9 8.9 11.2 8.9-208.6 0-219.8.9-198.7-8.9-208.6-6.6-6.6-12.4-8.9-22.1-8.9-9.7 0-15.5 2.3-22.1 8.9-9.8 9.8-8.9-8.7-8.9 189.3V620H606.1c-146.8 0-199.7.3-202.2 1.1-1.9.7-11.2 6.2-20.7 12.3-33.9 21.8-50.2 32.3-73.1 47.1-12.7 8.2-29.8 19.3-37.9 24.5-15.9 10.2-42.2 27.1-56.6 36.4l-8.8 5.8.3-52.9.4-52.8-2.3-4.7c-1.3-2.6-4.6-6.7-7.3-9.2-8.7-7.8-6.5-7.6-74.6-7.6H63V63h194.3c221.1 0 199.9.9 209.8-8.9 6.6-6.6 8.9-12.4 8.9-22.1 0-10-2.3-15.4-9.4-22.6C456.1-1 480.8 0 237.1.1 44.8.2 23.1.3 19 1.7zM574.2 4.1c-6.6 3.3-10.9 7.7-14.4 14.9-3.2 6.6-3.1 19.6.2 26.5 2.9 5.9 8.4 11.6 14.2 14.7 3.7 2 5.8 2.3 14.3 2.3 9.3 0 10.4-.2 15.5-3.1 21.7-12.2 21.1-44.2-1.1-55.3-5.4-2.7-7.2-3.1-14.4-3.1-7.1 0-9 .4-14.3 3.1zM698.3 4C687.4 9.5 681 19.8 681 32c0 12.3 6.4 22.6 17.5 28.1 5.9 2.9 7 3.1 14.7 2.7 9.6-.4 15.3-2.7 21.3-8.6 12.1-11.9 12-32.8-.1-44.6-6.3-6.2-10.7-7.9-20.9-8.4-8.5-.3-9.3-.2-15.2 2.8zM824 2.7C817.7 5 808.9 14 806.7 20.4c-1 2.8-1.7 8-1.7 12 0 17.4 13.2 30.6 30.6 30.6 10.1 0 15.8-2.2 22.5-8.9 6.6-6.6 8.9-12.4 8.9-22.1 0-3.7-.8-8.9-1.7-11.6-2.3-6.7-11-15.4-17.7-17.7C841.4.6 830 .6 824 2.7zM829.3 125c-6.5 1.4-11.6 4.5-16.6 10-5.6 6.2-7.7 12.2-7.7 21.5 0 11.9 6.1 21.8 17.3 27.7 3.5 1.9 5.8 2.3 13.7 2.3 8 0 10.2-.4 13.8-2.3 6.3-3.3 11.4-8.4 14.2-13.9 2.2-4.2 2.5-6.1 2.5-14.8 0-8.3-.4-10.7-2.2-14-6.6-12.4-21.4-19.4-35-16.5z"/></g></svg>