<svg viewBox="0 0 100 100" xmlns="http://www.w3.org/2000/svg"><path d="M42.7 33.6H57c.8 0 1.5-.7 1.5-1.5s-.7-1.5-1.5-1.5H42.7c-.8 0-1.5.7-1.5 1.5s.7 1.5 1.5 1.5zM42.7 43.6H57c.8 0 1.5-.7 1.5-1.5s-.7-1.5-1.5-1.5H42.7c-.8 0-1.5.7-1.5 1.5s.7 1.5 1.5 1.5zM53.2 50.6h-6.3c-.8 0-1.5.7-1.5 1.5s.7 1.5 1.5 1.5h6.3c.8 0 1.5-.7 1.5-1.5s-.7-1.5-1.5-1.5z"/><path d="M81.5 37.6v-.2-.1c0-.1 0-.1-.1-.2 0-.1-.1-.1-.1-.2s-.1-.1-.1-.2l-.1-.1-9.4-7.7V22c0-.8-.7-1.5-1.5-1.5h-8.6L51.1 12c-.6-.5-1.3-.5-1.9 0l-10.4 8.5h-8.9c-.8 0-1.5.7-1.5 1.5v7.1l-9 7.4-.1.1-.1.1-.1.1c0 .1-.1.1-.1.2s0 .1-.1.2v40.3c0 .8.7 1.5 1.5 1.5H80c.8 0 1.5-.7 1.5-1.5V37.6zm-5.7-1.5h-4.2v-3.5l4.2 3.5zm-47.5 6.4l-4-3.4h4v3.4zm43.3-3.4h4.3l-4.3 3.7v-3.7zm-21.5-24l6.6 5.4H43.5l6.6-5.4zM31.3 26.6v-3.1h37.2v21.4L50 60.6 31.3 44.9V26.6zm-3 9.5h-3.9l3.9-3.2v3.2zm50.2 40H21.8V40.9l19.8 16.9-8.4 5.4c-.7.5-.9 1.4-.4 2.1.3.4.8.7 1.3.7.3 0 .6-.1.8-.2l9.1-5.9 5.1 4.3c.1.1.3.2.4.2h.1c.1 0 .3.1.5.1s.3 0 .4-.1h.1c.1-.1.3-.1.4-.2l4.9-4.1 8.8 5.7c.3.2.5.2.8.2.5 0 1-.2 1.3-.7.4-.7.3-1.6-.4-2.1L58.3 58l20.2-17.1v35.2z"/></svg>