<svg version="1" xmlns="http://www.w3.org/2000/svg" width="994.667" height="1240" viewBox="0 0 746.000000 930.000000"><g fill="#FFF"><path d="M20.3 1.8C10.2 5.4 3.1 13.3 1 23.4.2 27 0 102.9.2 290l.3 261.5 2.8 5.7c5.3 10.9 14.3 16.3 27.2 16.3 12.9 0 21.9-5.4 27.2-16.3l2.8-5.7.3-232.8c.1-128 .4-232.7.7-232.7.3 0 3.6 1.9 7.3 4.1 19.5 12 27.7 17.1 53.2 32.9 80.9 50.2 113.2 70.2 138.3 85.7 9.4 5.8 19.5 12.1 22.2 13.8 2.8 1.8 12.7 7.9 22 13.7 9.4 5.8 24.7 15.2 34 21 19.6 12.2 58.9 36.4 72 44.5 5 3.1 11.3 7 14 8.8 2.8 1.8 10.4 6.5 17 10.5s14.3 8.8 17 10.5c2.8 1.8 12.9 8.1 22.5 14 17.5 10.8 34 21.1 69.3 42.9 10.3 6.4 27.1 16.8 37.5 23.2 10.3 6.4 26.1 16.2 35.2 21.9 9.1 5.6 20.9 12.9 26.2 16.2l9.7 6.1-21.2 14.3c-11.6 7.8-27.9 18.8-36.2 24.4-16.2 10.9-45.3 30.6-87.5 59-14.6 9.8-34.6 23.3-44.5 30-9.9 6.7-30.4 20.5-45.5 30.7-59.5 40-78.2 52.6-95.5 64.3-28.2 19-62.2 42-83 56-22 14.8-24.6 17-28.3 24.5-2.3 4.6-2.7 6.8-2.7 13.5s.4 8.9 2.8 13.7c4.7 9.7 13.5 15.5 24.7 16.5 9.9.9 14.6-.9 31.8-12.5 19.4-13 64.2-43.1 90.2-60.7 10.7-7.2 31.4-21.2 46-31 14.6-9.8 34.6-23.3 44.5-30 9.9-6.7 29.3-19.7 43-29 13.8-9.3 33.1-22.3 43-29 9.9-6.7 29-19.6 42.5-28.7 13.5-9 34.2-23 46-31 11.8-8 31-20.8 42.5-28.6 62-41.7 65-43.9 68.2-48.1 9.3-12.2 7.7-32.2-3.5-42.3-2-1.8-10.9-7.8-19.7-13.2-8.8-5.5-22.1-13.7-29.5-18.4-15.7-9.8-18.4-11.5-43-26.7-22.8-14-48.2-29.8-55.8-34.6-3.1-2-11.1-6.9-17.7-10.9-6.6-4.1-14.5-9-17.7-10.9-6-3.9-28.2-17.6-52.3-32.5-8.2-5.1-22.6-14-32-19.8-9.3-5.7-24.9-15.4-34.5-21.3-9.6-6-19.7-12.3-22.5-14-2.7-1.8-12.8-8-22.2-13.9-19.4-11.9-39.7-24.5-106.8-66.1-18.1-11.2-31-19.2-69-42.7-9.3-5.8-24.6-15.3-34-21-9.3-5.8-25.4-15.8-35.7-22.2-10.4-6.4-27.2-16.8-37.5-23.2C95.9 34 79.9 24 70.5 18.2 45.7 2.7 41.7.8 32.8.3c-5.3-.3-8.7.1-12.5 1.5zM21.2 633.4c-12.3 4-20.2 15-20.2 28.2s5.1 21.8 16.2 27.3c11 5.5 24.2 3.9 33.3-4.1 7.1-6.2 9.9-12.6 9.9-22.3.1-9.1-1.9-14.5-7.3-20.8-6.9-7.8-21.6-11.6-31.9-8.3zM17.2 754.1C6.1 759.6 1 768.2 1 781.4c0 11.8 6.2 21.6 16.9 26.8 7 3.5 18.6 3.3 26.3-.5 10.9-5.4 16.3-14.4 16.2-27.2 0-9.7-2.8-16.1-9.9-22.3-5.7-5-11.9-7.2-20.5-7.2-5.5 0-7.8.6-12.8 3.1zM141.5 791.1c-8.7 2.2-16.7 9.5-20.6 18.9-3.7 9-.7 23.4 6.4 30.8 5.8 6.1 11.1 8.5 19.7 9 13.8.8 23.9-4.9 29.7-16.5 7.1-14.6.5-33.2-14.2-40.3-5-2.4-15.3-3.4-21-1.9zM22.5 870.3C8.6 874.9 1.1 884.9 1 898.6c0 9.9 2.2 15.8 8.5 22 6.1 6.1 12.5 8.6 22 8.5 17.2-.1 30.8-15 29.2-32.1-1-11-7.8-21-17.3-25.1-5.7-2.5-15.7-3.3-20.9-1.6z"/></g></svg>